<svg width="64" height="64" viewBox="0 0 64 64" fill="none" xmlns="http://www.w3.org/2000/svg">
<rect width="64" height="64" rx="12" fill="#1B2028"/>
<path d="M39.1217 19H31.9094H15.8037C13.9205 19 12.3939 20.5266 12.3939 22.4097V35.25V38.9617C12.3939 39.9033 13.1572 40.6666 14.0988 40.6666H19.7274M51.4249 27.3333V38.9617C51.4249 39.9033 50.6616 40.6666 49.7201 40.6666H25.5457" stroke="white" stroke-width="2" stroke-linecap="round"/>
<path d="M51.425 39.8333L53.1182 44.4063C53.9427 46.6332 52.2953 48.9999 49.9206 48.9999H13.8984C11.5238 48.9999 9.8763 46.6332 10.7008 44.4063L12.394 39.8333" stroke="white" stroke-width="2"/>
<path d="M49.0891 16.4926C49.7028 15.8899 50.6976 15.8899 51.3113 16.4926L52.4621 17.6228C53.0757 18.2255 53.0757 19.2026 52.4621 19.8052L44.2427 27.8777C43.948 28.1671 43.5483 28.3297 43.1316 28.3297L41.9808 28.3297C41.113 28.3297 40.4095 27.6388 40.4095 26.7865L40.4095 25.6562C40.4095 25.247 40.5751 24.8544 40.8697 24.565L49.0891 16.4926Z" stroke="white" stroke-width="2"/>
</svg>
