<svg width="152" height="42" viewBox="0 0 152 42" fill="none" xmlns="http://www.w3.org/2000/svg">
<rect width="42" height="42" rx="12" fill="#EB7530"/>
<path d="M22.5914 14.0421V11H13V31.9007H22.5914V28.8587C20.6266 28.8587 18.7423 28.0781 17.353 26.6888C15.9636 25.2995 15.1831 23.4152 15.1831 21.4504C15.1831 19.4856 15.9636 17.6012 17.353 16.2119C18.7423 14.8226 20.6266 14.0421 22.5914 14.0421Z" fill="white"/>
<path d="M22.5917 14.0421V28.8587C24.5565 28.8587 26.4409 28.0782 27.8302 26.6888C29.2195 25.2995 30 23.4152 30 21.4504C30 19.4856 29.2195 17.6013 27.8302 16.212C26.4409 14.8226 24.5565 14.0421 22.5917 14.0421Z" fill="white"/>
<path d="M63.98 25.52H58.74L57.9 28H54.32L59.4 13.96H63.36L68.44 28H64.82L63.98 25.52ZM63.1 22.88L61.36 17.74L59.64 22.88H63.1ZM80.5061 22.24C80.5061 22.56 80.4861 22.8933 80.4461 23.24H72.7061C72.7594 23.9333 72.9794 24.4667 73.3661 24.84C73.7661 25.2 74.2528 25.38 74.8261 25.38C75.6794 25.38 76.2728 25.02 76.6061 24.3H80.2461C80.0594 25.0333 79.7194 25.6933 79.2261 26.28C78.7461 26.8667 78.1394 27.3267 77.4061 27.66C76.6728 27.9933 75.8528 28.16 74.9461 28.16C73.8528 28.16 72.8794 27.9267 72.0261 27.46C71.1728 26.9933 70.5061 26.3267 70.0261 25.46C69.5461 24.5933 69.3061 23.58 69.3061 22.42C69.3061 21.26 69.5394 20.2467 70.0061 19.38C70.4861 18.5133 71.1528 17.8467 72.0061 17.38C72.8594 16.9133 73.8394 16.68 74.9461 16.68C76.0261 16.68 76.9861 16.9067 77.8261 17.36C78.6661 17.8133 79.3194 18.46 79.7861 19.3C80.2661 20.14 80.5061 21.12 80.5061 22.24ZM77.0061 21.34C77.0061 20.7533 76.8061 20.2867 76.4061 19.94C76.0061 19.5933 75.5061 19.42 74.9061 19.42C74.3328 19.42 73.8461 19.5867 73.4461 19.92C73.0594 20.2533 72.8194 20.7267 72.7261 21.34H77.0061ZM89.1303 28L85.7303 23.32V28H82.3103V13.2H85.7303V21.38L89.1103 16.84H93.3303L88.6903 22.44L93.3703 28H89.1303ZM96.3936 15.68C95.7936 15.68 95.3003 15.5067 94.9136 15.16C94.5403 14.8 94.3536 14.36 94.3536 13.84C94.3536 13.3067 94.5403 12.8667 94.9136 12.52C95.3003 12.16 95.7936 11.98 96.3936 11.98C96.9803 11.98 97.4603 12.16 97.8336 12.52C98.2203 12.8667 98.4136 13.3067 98.4136 13.84C98.4136 14.36 98.2203 14.8 97.8336 15.16C97.4603 15.5067 96.9803 15.68 96.3936 15.68ZM98.0936 16.84V28H94.6736V16.84H98.0936ZM105.652 28.14C104.625 28.14 103.705 27.9733 102.892 27.64C102.079 27.3067 101.425 26.8133 100.932 26.16C100.452 25.5067 100.199 24.72 100.172 23.8H103.812C103.865 24.32 104.045 24.72 104.352 25C104.659 25.2667 105.059 25.4 105.552 25.4C106.059 25.4 106.459 25.2867 106.752 25.06C107.045 24.82 107.192 24.4933 107.192 24.08C107.192 23.7333 107.072 23.4467 106.832 23.22C106.605 22.9933 106.319 22.8067 105.972 22.66C105.639 22.5133 105.159 22.3467 104.532 22.16C103.625 21.88 102.885 21.6 102.312 21.32C101.739 21.04 101.245 20.6267 100.832 20.08C100.419 19.5333 100.212 18.82 100.212 17.94C100.212 16.6333 100.685 15.6133 101.632 14.88C102.579 14.1333 103.812 13.76 105.332 13.76C106.879 13.76 108.125 14.1333 109.072 14.88C110.019 15.6133 110.525 16.64 110.592 17.96H106.892C106.865 17.5067 106.699 17.1533 106.392 16.9C106.085 16.6333 105.692 16.5 105.212 16.5C104.799 16.5 104.465 16.6133 104.212 16.84C103.959 17.0533 103.832 17.3667 103.832 17.78C103.832 18.2333 104.045 18.5867 104.472 18.84C104.899 19.0933 105.565 19.3667 106.472 19.66C107.379 19.9667 108.112 20.26 108.672 20.54C109.245 20.82 109.739 21.2267 110.152 21.76C110.565 22.2933 110.772 22.98 110.772 23.82C110.772 24.62 110.565 25.3467 110.152 26C109.752 26.6533 109.165 27.1733 108.392 27.56C107.619 27.9467 106.705 28.14 105.652 28.14ZM119.737 16.72C121.017 16.72 122.043 17.1467 122.817 18C123.59 18.84 123.977 20 123.977 21.48V28H120.577V21.94C120.577 21.1933 120.383 20.6133 119.997 20.2C119.61 19.7867 119.09 19.58 118.437 19.58C117.783 19.58 117.263 19.7867 116.877 20.2C116.49 20.6133 116.297 21.1933 116.297 21.94V28H112.877V13.2H116.297V18.34C116.643 17.8467 117.117 17.4533 117.717 17.16C118.317 16.8667 118.99 16.72 119.737 16.72ZM131.433 28.16C130.34 28.16 129.353 27.9267 128.473 27.46C127.607 26.9933 126.92 26.3267 126.413 25.46C125.92 24.5933 125.673 23.58 125.673 22.42C125.673 21.2733 125.927 20.2667 126.433 19.4C126.94 18.52 127.633 17.8467 128.513 17.38C129.393 16.9133 130.38 16.68 131.473 16.68C132.567 16.68 133.553 16.9133 134.433 17.38C135.313 17.8467 136.007 18.52 136.513 19.4C137.02 20.2667 137.273 21.2733 137.273 22.42C137.273 23.5667 137.013 24.58 136.493 25.46C135.987 26.3267 135.287 26.9933 134.393 27.46C133.513 27.9267 132.527 28.16 131.433 28.16ZM131.433 25.2C132.087 25.2 132.64 24.96 133.093 24.48C133.56 24 133.793 23.3133 133.793 22.42C133.793 21.5267 133.567 20.84 133.113 20.36C132.673 19.88 132.127 19.64 131.473 19.64C130.807 19.64 130.253 19.88 129.813 20.36C129.373 20.8267 129.153 21.5133 129.153 22.42C129.153 23.3133 129.367 24 129.793 24.48C130.233 24.96 130.78 25.2 131.433 25.2ZM142.508 18.42C142.841 17.9 143.301 17.48 143.888 17.16C144.474 16.84 145.161 16.68 145.948 16.68C146.868 16.68 147.701 16.9133 148.448 17.38C149.194 17.8467 149.781 18.5133 150.208 19.38C150.648 20.2467 150.868 21.2533 150.868 22.4C150.868 23.5467 150.648 24.56 150.208 25.44C149.781 26.3067 149.194 26.98 148.448 27.46C147.701 27.9267 146.868 28.16 145.948 28.16C145.174 28.16 144.488 28 143.888 27.68C143.301 27.36 142.841 26.9467 142.508 26.44V33.32H139.088V16.84H142.508V18.42ZM147.388 22.4C147.388 21.5467 147.148 20.88 146.668 20.4C146.201 19.9067 145.621 19.66 144.928 19.66C144.248 19.66 143.668 19.9067 143.188 20.4C142.721 20.8933 142.488 21.5667 142.488 22.42C142.488 23.2733 142.721 23.9467 143.188 24.44C143.668 24.9333 144.248 25.18 144.928 25.18C145.608 25.18 146.188 24.9333 146.668 24.44C147.148 23.9333 147.388 23.2533 147.388 22.4Z" fill="white"/>
</svg>
