<svg width="172" height="37" viewBox="0 0 172 37" fill="none" xmlns="http://www.w3.org/2000/svg">
<path d="M27.5433 16.4985C27.0777 16.967 26.7212 17.5324 26.499 18.1543C26.2769 18.7763 26.1947 19.4396 26.2582 20.097L26.2361 20.0749C26.3015 20.8488 26.1971 21.6275 25.9303 22.3569C25.6636 23.0861 25.241 23.7485 24.6919 24.2976C24.1428 24.8467 23.4804 25.2694 22.751 25.536C22.0218 25.8028 21.243 25.9072 20.4692 25.8418L20.4913 25.8639C19.5657 25.7778 18.6361 25.9792 17.829 26.4407C17.0221 26.9023 16.3771 27.6015 15.9821 28.4431C15.5871 29.2846 15.4612 30.2275 15.6216 31.1432C15.7822 32.0589 16.2212 32.9028 16.8788 33.5598C17.5365 34.2169 18.3808 34.6551 19.2965 34.8147C20.2124 34.9744 21.1551 34.8476 21.9963 34.4519C22.8375 34.056 23.5361 33.4106 23.9969 32.6031C24.4578 31.7957 24.6584 30.8659 24.5714 29.9403L24.5948 29.9624C24.5294 29.1887 24.6337 28.4099 24.9004 27.6805C25.1671 26.9512 25.5899 26.2889 26.139 25.7397C26.6881 25.1907 27.3504 24.7679 28.0797 24.5013C28.8091 24.2346 29.5878 24.1302 30.3617 24.1955L30.3383 24.1734C31.0944 24.2414 31.8555 24.1174 32.551 23.813C33.2464 23.5085 33.8538 23.0334 34.3167 22.4318C34.7796 21.8302 35.0833 21.1213 35.1993 20.3711C35.3154 19.6208 35.2402 18.8535 34.9807 18.1399C34.7213 17.4265 34.2859 16.7901 33.7149 16.2897C33.144 15.7893 32.456 15.4411 31.7147 15.2775C30.9734 15.1138 30.2027 15.1399 29.4742 15.3533C28.7456 15.5668 28.0828 15.9607 27.547 16.4985H27.5433Z" fill="white"/>
<path d="M18.4803 22.9675L18.457 22.9454C19.1146 23.0116 19.7788 22.9309 20.4016 22.709C21.0242 22.4871 21.5898 22.1297 22.0574 21.6625C22.5249 21.1953 22.8829 20.6299 23.1052 20.0074C23.3275 19.3849 23.4087 18.7208 23.343 18.0631L23.3664 18.0852C23.301 17.3113 23.4054 16.5326 23.672 15.8032C23.9387 15.0739 24.3615 14.4116 24.9105 13.8624C25.4597 13.3134 26.122 12.8906 26.8513 12.624C27.5807 12.3573 28.3594 12.2529 29.1333 12.3183L29.1099 12.2961C30.0357 12.3831 30.9656 12.1823 31.773 11.7213C32.5805 11.2603 33.226 10.5614 33.6216 9.71995C34.0172 8.87855 34.1436 7.93559 33.9837 7.01967C33.8237 6.10376 33.3851 5.25951 32.7276 4.60205C32.0702 3.94461 31.2259 3.50596 30.31 3.34597C29.3941 3.18598 28.4512 3.31241 27.6097 3.70803C26.7683 4.10365 26.0695 4.7492 25.6084 5.55663C25.1473 6.36405 24.9465 7.29404 25.0335 8.21974L25.0114 8.1964C25.0769 8.97026 24.9727 9.7491 24.7061 10.4785C24.4395 11.208 24.0168 11.8704 23.4677 12.4196C22.9185 12.9687 22.2561 13.3914 21.5267 13.658C20.7972 13.9246 20.0184 14.0288 19.2445 13.9633L19.2666 13.9867C18.609 13.9204 17.9447 14.0012 17.322 14.223C16.6994 14.4448 16.1338 14.8023 15.6662 15.2695C15.1986 15.7368 14.8407 16.3021 14.6183 16.9247C14.3961 17.5472 14.3149 18.2112 14.3806 18.869L14.3585 18.8469C14.4236 19.6206 14.319 20.3993 14.0523 21.1286C13.7855 21.8577 13.3628 22.5201 12.8138 23.0691C12.2647 23.6182 11.6024 24.0408 10.8732 24.3076C10.144 24.5744 9.36532 24.6789 8.59156 24.6138L8.61367 24.6359C7.68797 24.5489 6.75798 24.7497 5.95055 25.2108C5.14313 25.6718 4.49758 26.3707 4.10197 27.2121C3.70634 28.0536 3.5799 28.9965 3.73989 29.9124C3.89989 30.8283 4.33854 31.6726 4.99598 32.33C5.65344 32.9875 6.49769 33.4261 7.4136 33.5861C8.32952 33.746 9.27248 33.6196 10.1139 33.224C10.9553 32.8284 11.6542 32.1829 12.1152 31.3755C12.5763 30.5679 12.7771 29.638 12.6901 28.7123L12.7134 28.7344C12.6481 27.9606 12.7525 27.1819 13.0192 26.4525C13.2858 25.7232 13.7086 25.0609 14.2576 24.5117C14.8068 23.9627 15.4691 23.5399 16.1984 23.2733C16.9278 23.0066 17.7065 22.9022 18.4803 22.9675Z" fill="white"/>
<path d="M10.2465 20.5013C10.7121 20.033 11.0686 19.4676 11.2906 18.8456C11.5125 18.2236 11.5944 17.5601 11.5303 16.9029L11.5537 16.925C11.4883 16.151 11.5927 15.3719 11.8595 14.6424C12.1264 13.9129 12.5493 13.2504 13.0987 12.7013C13.6481 12.1521 14.3107 11.7295 15.0404 11.463C15.77 11.1964 16.549 11.0924 17.323 11.1581L17.2997 11.1359C18.2251 11.2226 19.1547 11.0218 19.9618 10.5608C20.7688 10.0998 21.4139 9.40106 21.8094 8.55992C22.2048 7.71876 22.3311 6.77614 22.1711 5.86057C22.0112 4.94501 21.5726 4.10107 20.9154 3.44386C20.2582 2.78665 19.4142 2.34815 18.4987 2.18816C17.5831 2.02817 16.6405 2.15449 15.7994 2.54987C14.9582 2.94525 14.2595 3.59046 13.7985 4.3975C13.3374 5.20455 13.1366 6.13416 13.2233 7.05955L13.2012 7.03744C13.2666 7.81125 13.1621 8.59 12.8954 9.31933C12.6287 10.0487 12.2061 10.711 11.6569 11.2601C11.1078 11.8092 10.4455 12.2319 9.71616 12.4986C8.98683 12.7653 8.20809 12.8697 7.43428 12.8043L7.45639 12.8265C6.70029 12.7586 5.9393 12.8829 5.24395 13.1874C4.54861 13.492 3.94139 13.9672 3.47857 14.5689C3.01576 15.1706 2.71232 15.8795 2.59637 16.6296C2.48043 17.3799 2.55573 18.1473 2.81529 18.8606C3.07485 19.574 3.51029 20.2103 4.08125 20.7106C4.6522 21.211 5.3402 21.559 6.0815 21.7227C6.82278 21.8862 7.59338 21.86 8.32188 21.6466C9.05038 21.4331 9.71319 21.0392 10.2489 20.5013H10.2465Z" fill="white"/>
<path d="M48.3041 8.24744H51.953V26.004H48.3041V8.24744Z" fill="white"/>
<path d="M54.0189 19.9241C54.0138 18.6481 54.3875 17.3992 55.0927 16.3357C55.7979 15.2723 56.8029 14.442 57.9804 13.9502C59.1578 13.4583 60.4547 13.3269 61.7069 13.5728C62.959 13.8186 64.1101 14.4304 65.0142 15.331C65.9183 16.2314 66.5348 17.38 66.7857 18.6312C67.0365 19.8824 66.9104 21.1799 66.4232 22.3593C65.9361 23.5386 65.1099 24.547 64.0493 25.2564C62.9885 25.9659 61.7413 26.3446 60.4652 26.3446C59.6182 26.3543 58.7777 26.195 57.9929 25.8761C57.2081 25.5571 56.4948 25.085 55.8946 24.4873C55.2944 23.8895 54.8194 23.178 54.4974 22.3945C54.1752 21.6111 54.0126 20.7712 54.0189 19.9241ZM63.2626 19.9241C63.2474 19.3741 63.0703 18.8408 62.7537 18.3907C62.437 17.9408 61.9947 17.5941 61.4822 17.3943C60.9695 17.1942 60.4094 17.1498 59.8716 17.2665C59.3339 17.3832 58.8425 17.6557 58.4588 18.0502C58.0752 18.4446 57.8162 18.9434 57.7146 19.4842C57.6129 20.0249 57.6727 20.5836 57.8869 21.0905C58.101 21.5974 58.4598 22.0299 58.9183 22.334C59.3769 22.638 59.915 22.8002 60.4652 22.8002C60.842 22.8103 61.2168 22.7421 61.5661 22.6001C61.9152 22.4581 62.2312 22.2453 62.494 21.9751C62.7568 21.7048 62.9609 21.3831 63.0931 21.0301C63.2254 20.6771 63.2831 20.3006 63.2626 19.9241Z" fill="white"/>
<path d="M81.4541 13.8424V25.3909C81.4541 29.4771 78.2672 31.2045 75.0324 31.2045C73.8935 31.2898 72.753 31.0597 71.7361 30.5396C70.7194 30.0194 69.8654 29.2293 69.2679 28.256L72.3811 26.4561C72.6323 26.9635 73.0324 27.3821 73.5279 27.6559C74.0235 27.9296 74.5908 28.0456 75.154 27.9881C75.514 28.038 75.8806 28.0063 76.2267 27.8954C76.5727 27.7844 76.8894 27.5971 77.1533 27.3473C77.4172 27.0974 77.6215 26.7915 77.7512 26.4519C77.8808 26.1125 77.9324 25.7482 77.9023 25.386V24.2742C77.475 24.7969 76.9313 25.2123 76.3144 25.4869C75.6975 25.7615 75.025 25.8876 74.3505 25.8553C72.7458 25.8047 71.2237 25.1317 70.1064 23.9786C68.9892 22.8255 68.3644 21.2829 68.3644 19.6775C68.3644 18.072 68.9892 16.5294 70.1064 15.3763C71.2237 14.2232 72.7458 13.5502 74.3505 13.4996C75.025 13.4673 75.6975 13.5934 76.3144 13.868C76.9313 14.1426 77.475 14.558 77.9023 15.0808V13.8399L81.4541 13.8424ZM77.9036 19.6793C77.9281 19.0913 77.776 18.5093 77.467 18.0084C77.1581 17.5074 76.7062 17.1105 76.1697 16.8686C75.6332 16.6265 75.0366 16.5507 74.4566 16.6507C73.8766 16.7507 73.3398 17.022 72.9152 17.4298C72.4907 17.8374 72.198 18.3628 72.0745 18.9382C71.9511 19.5137 72.0027 20.113 72.2229 20.6588C72.4429 21.2047 72.8213 21.6723 73.3093 22.0013C73.7973 22.3303 74.3726 22.5057 74.9611 22.505C75.3446 22.5318 75.7292 22.478 76.0906 22.347C76.4519 22.216 76.7818 22.0108 77.0589 21.7446C77.3361 21.4784 77.5545 21.1571 77.7 20.8013C77.8455 20.4457 77.9149 20.0635 77.9036 19.6793Z" fill="white"/>
<path d="M83.5202 19.9241C83.5152 18.6481 83.8888 17.3992 84.5941 16.3357C85.2993 15.2723 86.3043 14.442 87.4817 13.9502C88.6592 13.4583 89.9561 13.3269 91.2082 13.5728C92.4604 13.8186 93.6114 14.4304 94.5155 15.331C95.4196 16.2314 96.0361 17.38 96.287 18.6312C96.5379 19.8824 96.4117 21.1799 95.9246 22.3593C95.4375 23.5386 94.6112 24.547 93.5506 25.2564C92.4899 25.9659 91.2426 26.3446 89.9665 26.3446C89.1195 26.3543 88.2789 26.195 87.4942 25.8761C86.7094 25.5571 85.9961 25.085 85.396 24.4873C84.7957 23.8895 84.3207 23.178 83.9987 22.3945C83.6766 21.6111 83.5139 20.7712 83.5202 19.9241ZM92.764 19.9241C92.7487 19.3741 92.5717 18.8408 92.2551 18.3907C91.9384 17.9408 91.4961 17.5941 90.9835 17.3943C90.4708 17.1942 89.9106 17.1498 89.373 17.2665C88.8352 17.3832 88.3438 17.6557 87.9601 18.0502C87.5766 18.4446 87.3176 18.9434 87.2159 19.4842C87.1141 20.0249 87.1741 20.5836 87.3882 21.0905C87.6024 21.5974 87.9611 22.0299 88.4196 22.334C88.8782 22.638 89.4162 22.8002 89.9665 22.8002C90.3433 22.8103 90.7181 22.7421 91.0673 22.6001C91.4166 22.4581 91.7326 22.2453 91.9954 21.9751C92.2582 21.7048 92.4622 21.3831 92.5944 21.0301C92.7267 20.6771 92.7845 20.3006 92.764 19.9241Z" fill="white"/>
<path d="M98.1153 10.5831C98.1153 10.1501 98.2437 9.72683 98.4842 9.36681C98.7248 9.00677 99.0668 8.72615 99.4668 8.56046C99.8669 8.39475 100.307 8.35139 100.732 8.43587C101.156 8.52034 101.547 8.72886 101.853 9.03504C102.159 9.34121 102.367 9.73131 102.452 10.156C102.536 10.5807 102.493 11.0209 102.327 11.4209C102.162 11.821 101.881 12.1629 101.521 12.4035C101.161 12.644 100.738 12.7724 100.305 12.7724C99.7258 12.7667 99.1722 12.5342 98.7629 12.1248C98.3536 11.7155 98.1211 11.162 98.1153 10.5831ZM98.4839 13.8425H102.134V26.0054H98.4789L98.4839 13.8425Z" fill="white"/>
<path d="M117.888 19.9238C117.931 20.7276 117.813 21.5318 117.544 22.2902C117.274 23.0486 116.857 23.7462 116.317 24.3429C115.776 24.9395 115.123 25.4236 114.396 25.7671C113.667 26.1105 112.879 26.3067 112.075 26.3443C111.399 26.3811 110.723 26.2671 110.096 26.0105C109.469 25.7537 108.908 25.3608 108.452 24.8602V30.8691H104.803V13.8423H108.452V14.9849C108.908 14.4846 109.47 14.092 110.096 13.8356C110.723 13.579 111.399 13.4652 112.075 13.502C112.879 13.5395 113.668 13.7356 114.396 14.0791C115.124 14.4226 115.777 14.9066 116.318 15.5035C116.858 16.1003 117.275 16.7981 117.544 17.5568C117.814 18.3153 117.931 19.1198 117.888 19.9238ZM114.24 19.9238C114.225 19.3546 114.043 18.8022 113.717 18.3357C113.39 17.8693 112.933 17.5096 112.403 17.3017C111.873 17.0937 111.293 17.0467 110.737 17.1666C110.18 17.2864 109.671 17.5677 109.274 17.9754C108.876 18.3831 108.608 18.8989 108.502 19.4585C108.396 20.018 108.458 20.5962 108.679 21.1209C108.9 21.6456 109.271 22.0933 109.746 22.4082C110.22 22.7229 110.777 22.8909 111.346 22.8908C111.737 22.9082 112.127 22.8427 112.491 22.6987C112.855 22.5549 113.184 22.3356 113.458 22.0554C113.731 21.7752 113.942 21.4406 114.076 21.0732C114.211 20.7059 114.267 20.3141 114.24 19.9238Z" fill="white"/>
<path d="M129.149 22.3553C129.149 25.1527 126.717 26.3444 124.091 26.3444C123.029 26.4405 121.964 26.2162 121.031 25.7C120.099 25.184 119.343 24.4002 118.861 23.4499L122.022 21.6501C122.15 22.0893 122.424 22.4715 122.8 22.7326C123.175 22.9937 123.63 23.1182 124.086 23.085C124.96 23.085 125.399 22.8172 125.399 22.3319C125.399 20.9928 119.415 21.6992 119.415 17.4913C119.415 14.8389 121.653 13.5022 124.183 13.5022C125.134 13.4721 126.075 13.6976 126.909 14.1553C127.743 14.613 128.44 15.2861 128.925 16.1043L125.812 17.7825C125.676 17.4639 125.448 17.1926 125.158 17.0023C124.868 16.8119 124.529 16.7112 124.183 16.7124C123.55 16.7124 123.161 16.9581 123.161 17.3931C123.166 18.7801 129.149 17.855 129.149 22.3553Z" fill="white"/>
<path d="M142.477 13.8425V26.0054H138.828V24.8616C138.407 25.3663 137.872 25.764 137.268 26.022C136.663 26.28 136.007 26.3909 135.351 26.3457C132.894 26.3457 130.806 24.595 130.806 21.3086V13.8425H134.454V20.7741C134.424 21.0638 134.457 21.3567 134.552 21.6323C134.645 21.908 134.798 22.1598 135 22.3703C135.201 22.5807 135.446 22.7448 135.717 22.851C135.988 22.9573 136.279 23.0032 136.57 22.9856C137.908 22.9856 138.832 22.2079 138.832 20.4805V13.8462L142.477 13.8425Z" fill="white"/>
<path d="M163.4 18.5373V26.0045H159.752V18.853C159.752 17.6367 159.168 16.859 158.001 16.859C156.785 16.859 156.103 17.7104 156.103 19.1454V26.0045H152.455V18.853C152.455 17.6367 151.871 16.859 150.703 16.859C149.487 16.859 148.806 17.7104 148.806 19.1454V26.0045H145.157V13.8417H148.806V14.9597C149.185 14.4637 149.681 14.0703 150.25 13.8156C150.82 13.5608 151.444 13.4528 152.066 13.5013C152.69 13.4708 153.311 13.6026 153.87 13.8838C154.428 14.1649 154.904 14.5861 155.251 15.1059C155.655 14.562 156.191 14.1295 156.808 13.8489C157.425 13.5683 158.103 13.4488 158.779 13.5013C161.571 13.5026 163.4 15.4965 163.4 18.5373Z" fill="white"/>
<path d="M166.486 13.768C167.981 13.768 169.193 12.5556 169.193 11.0602C169.193 9.56472 167.981 8.35242 166.486 8.35242C164.99 8.35242 163.778 9.56472 163.778 11.0602C163.778 12.5556 164.99 13.768 166.486 13.768Z" fill="white"/>
</svg>
