<svg width="163" height="43" viewBox="0 0 163 43" fill="none" xmlns="http://www.w3.org/2000/svg">
<path d="M55.0775 30.9655C54.3467 31.0052 53.624 30.7974 53.0258 30.3758C52.7759 30.1905 52.5748 29.9471 52.4399 29.6667C52.305 29.3863 52.2405 29.0773 52.2518 28.7663V17.3775C52.2459 17.3293 52.2509 17.2803 52.2668 17.2343C52.2825 17.1884 52.3085 17.1467 52.3429 17.1123C52.3773 17.0779 52.419 17.0519 52.4649 17.0362C52.5109 17.0203 52.5599 17.0153 52.6081 17.0212H54.6721C54.9055 17.0212 55.0161 17.144 55.0161 17.3775V27.8818C55.0161 28.3486 55.2249 28.582 55.6549 28.582C55.8372 28.5895 56.0196 28.5689 56.1955 28.5206C56.4412 28.5206 56.5764 28.5943 56.5886 28.8155L56.7729 30.3512C56.7818 30.396 56.7809 30.4421 56.7705 30.4866C56.76 30.5309 56.7401 30.5727 56.7121 30.6087C56.6842 30.6448 56.6488 30.6745 56.6085 30.6958C56.5681 30.7171 56.5236 30.7295 56.4781 30.732C56.026 30.8814 55.5536 30.9602 55.0775 30.9655Z" fill="white"/>
<path d="M66.6875 29.6513C65.6504 30.5082 64.3471 30.9769 63.0018 30.9769C61.6565 30.9769 60.3532 30.5082 59.3161 29.6513C58.4046 28.7311 57.8931 27.4881 57.8931 26.1928C57.8931 24.8975 58.4046 23.6546 59.3161 22.7344C60.3552 21.8819 61.6577 21.416 63.0018 21.416C64.3458 21.416 65.6484 21.8819 66.6875 22.7344C67.5781 23.6631 68.0753 24.9 68.0753 26.1867C68.0753 27.4734 67.5781 28.7103 66.6875 29.639V29.6513ZM61.2572 28.0295C61.7386 28.4656 62.3646 28.707 63.0141 28.707C63.6635 28.707 64.2897 28.4656 64.7709 28.0295C65.2066 27.5288 65.4464 26.8873 65.4464 26.2235C65.4464 25.5599 65.2066 24.9184 64.7709 24.4175C64.2897 23.9816 63.6635 23.7401 63.0141 23.7401C62.3646 23.7401 61.7386 23.9816 61.2572 24.4175C60.8217 24.9184 60.5817 25.5599 60.5817 26.2235C60.5817 26.8873 60.8217 27.5288 61.2572 28.0295Z" fill="white"/>
<path d="M79.4396 21.7268C79.673 21.7268 79.7836 21.8496 79.7836 22.0831V30.8919C79.8051 31.4866 79.6938 32.0784 79.4579 32.6245C79.222 33.1707 78.8674 33.6574 78.4199 34.0494C77.4265 34.8965 76.149 35.3354 74.8447 35.2779C73.6668 35.3193 72.5044 34.9977 71.5153 34.3565C71.0929 34.0792 70.7321 33.7179 70.4553 33.2953C70.1784 32.8725 69.9914 32.3974 69.9059 31.8994C69.9059 31.6536 69.9059 31.5431 70.2376 31.5431H72.3016C72.3892 31.546 72.4742 31.5744 72.5461 31.6245C72.6181 31.6747 72.674 31.7444 72.707 31.8256C72.8409 32.1988 73.1078 32.5095 73.4564 32.6979C73.8814 32.9172 74.3544 33.0271 74.8324 33.0174C75.1209 33.0332 75.4096 32.9913 75.6818 32.8943C75.9539 32.7973 76.2039 32.6469 76.4173 32.4522C76.6123 32.2485 76.7639 32.0073 76.8632 31.7434C76.9624 31.4796 77.0071 31.1982 76.9947 30.9165V30.1425C76.2557 30.686 75.3563 30.9671 74.4393 30.9411C73.7975 30.9644 73.1577 30.8579 72.558 30.6278C71.9584 30.3976 71.4116 30.0488 70.9502 29.6019C70.0645 28.6857 69.5694 27.461 69.5694 26.1865C69.5694 24.9121 70.0645 23.6875 70.9502 22.7711C71.4138 22.3283 71.9614 21.9828 72.5606 21.7549C73.1599 21.527 73.7986 21.4214 74.4393 21.4442C75.3828 21.4193 76.3065 21.7186 77.0562 22.2919V22.0954C77.0505 22.0483 77.0554 22.0005 77.0705 21.9555C77.0856 21.9107 77.1106 21.8697 77.1435 21.8355C77.1764 21.8014 77.2166 21.7751 77.261 21.7584C77.3054 21.7417 77.353 21.7351 77.4002 21.7391L79.4396 21.7268ZM74.6727 28.7542C74.9892 28.764 75.3041 28.7042 75.5949 28.5789C75.8857 28.4537 76.1455 28.2661 76.3559 28.0294C76.7644 27.5019 76.986 26.8536 76.986 26.1865C76.986 25.5194 76.7644 24.8712 76.3559 24.3436C76.1463 24.1102 75.888 23.9253 75.5994 23.8022C75.3107 23.6791 74.9987 23.6207 74.685 23.6311C74.3649 23.621 74.0464 23.6806 73.7515 23.8058C73.4567 23.931 73.1925 24.1187 72.9773 24.3559C72.5248 24.8605 72.2868 25.5216 72.3139 26.1988C72.2918 26.8693 72.5245 27.5234 72.965 28.0294C73.1808 28.266 73.445 28.4533 73.7398 28.5784C74.0345 28.7035 74.3527 28.7634 74.6727 28.7542Z" fill="white"/>
<path d="M90.3862 29.6512C89.3471 30.5037 88.0446 30.9696 86.7005 30.9696C85.3565 30.9696 84.0539 30.5037 83.0148 29.6512C82.1235 28.7205 81.6259 27.4816 81.6259 26.1928C81.6259 24.9042 82.1235 23.6651 83.0148 22.7344C84.0549 21.8841 85.3571 21.4196 86.7005 21.4196C88.044 21.4196 89.3461 21.8841 90.3862 22.7344C91.2768 23.663 91.774 24.9 91.774 26.1867C91.774 27.4733 91.2768 28.7103 90.3862 29.6389V29.6512ZM84.9437 28.0295C85.1792 28.2536 85.4568 28.4287 85.7606 28.5447C86.0643 28.6606 86.3879 28.7153 86.7128 28.7052C87.0357 28.7136 87.3571 28.6583 87.6586 28.5423C87.9601 28.4263 88.2356 28.2521 88.4697 28.0295C88.8982 27.5253 89.1335 26.8852 89.1335 26.2235C89.1335 25.5618 88.8982 24.9217 88.4697 24.4175C88.2356 24.195 87.9601 24.0207 87.6586 23.9048C87.3571 23.7889 87.0357 23.7334 86.7128 23.7418C86.3879 23.7318 86.0643 23.7864 85.7606 23.9024C85.4568 24.0184 85.1792 24.1935 84.9437 24.4175C84.5153 24.9217 84.28 25.5618 84.28 26.2235C84.28 26.8852 84.5153 27.5253 84.9437 28.0295Z" fill="white"/>
<path d="M96.2098 19.6384C95.885 19.9227 95.4681 20.0794 95.0365 20.0794C94.6049 20.0794 94.188 19.9227 93.8632 19.6384C93.716 19.4995 93.5987 19.3319 93.5184 19.146C93.4383 18.9601 93.3969 18.7597 93.3969 18.5573C93.3969 18.3548 93.4383 18.1546 93.5184 17.9685C93.5987 17.7827 93.716 17.6151 93.8632 17.4761C94.1913 17.199 94.607 17.047 95.0365 17.047C95.466 17.047 95.8816 17.199 96.2098 17.4761C96.3571 17.6151 96.4744 17.7827 96.5545 17.9685C96.6347 18.1546 96.676 18.3548 96.676 18.5573C96.676 18.7597 96.6347 18.9601 96.5545 19.146C96.4744 19.3319 96.3571 19.4995 96.2098 19.6384ZM96.4678 30.9659C95.7375 31.0017 95.016 30.7943 94.416 30.3761C94.17 30.1882 93.9723 29.9439 93.8398 29.6639C93.7073 29.3839 93.6436 29.0763 93.6543 28.7667V22.0833C93.6484 22.0351 93.6535 21.9861 93.6693 21.9402C93.685 21.8942 93.7111 21.8526 93.7455 21.8182C93.7799 21.7838 93.8215 21.7577 93.8675 21.742C93.9134 21.7261 93.9624 21.7211 94.0106 21.727H96.0746C96.308 21.727 96.4186 21.8499 96.4186 22.0833V27.8821C96.4186 28.349 96.6275 28.5824 97.0452 28.5824C97.2316 28.5892 97.4178 28.5684 97.598 28.521C97.8438 28.521 97.9789 28.5947 97.9912 28.8159L98.1755 30.3516C98.1843 30.3964 98.1835 30.4425 98.173 30.487C98.1626 30.5313 98.1427 30.5731 98.1147 30.6091C98.0868 30.6452 98.0514 30.6749 98.0111 30.6962C97.9707 30.7174 97.9262 30.7298 97.8806 30.7324C97.4246 30.8827 96.948 30.9614 96.4678 30.9659Z" fill="white"/>
<path d="M105.768 21.4321C106.413 21.4066 107.056 21.5109 107.659 21.7388C108.263 21.9669 108.815 22.3137 109.282 22.7589C110.15 23.6914 110.633 24.9184 110.633 26.1928C110.633 27.4672 110.15 28.6943 109.282 29.6266C108.817 30.0759 108.266 30.4262 107.662 30.6563C107.058 30.8865 106.414 30.9918 105.768 30.9658C104.848 30.9863 103.946 30.7059 103.2 30.1672V34.6024C103.2 34.8358 103.077 34.9464 102.844 34.9464H100.78C100.733 34.9552 100.684 34.9524 100.638 34.9383C100.593 34.924 100.551 34.8989 100.517 34.865C100.483 34.8311 100.458 34.7896 100.444 34.7438C100.43 34.6981 100.427 34.6495 100.436 34.6024V24.5281C100.45 24.4295 100.441 24.329 100.41 24.2344C100.379 24.14 100.326 24.054 100.255 23.9836C100.185 23.9132 100.099 23.8602 100.005 23.8289C99.9101 23.7976 99.8095 23.7888 99.711 23.8032H99.3055C99.0352 23.8032 98.9001 23.7049 98.9001 23.5084V22.0586C98.8937 21.969 98.9183 21.8798 98.9698 21.8061C99.0211 21.7322 99.0963 21.6783 99.1827 21.6532C99.6076 21.4988 100.057 21.4238 100.51 21.4321C100.96 21.3921 101.413 21.4879 101.809 21.7067C102.205 21.9256 102.527 22.2578 102.733 22.6606C103.129 22.2604 103.602 21.945 104.124 21.7337C104.646 21.5225 105.205 21.4198 105.768 21.4321ZM103.851 28.0295C104.07 28.2585 104.333 28.4407 104.625 28.5652C104.916 28.6896 105.23 28.7537 105.547 28.7537C105.864 28.7537 106.177 28.6896 106.468 28.5652C106.76 28.4407 107.023 28.2585 107.242 28.0295C107.704 27.5149 107.946 26.8405 107.918 26.1498C107.95 25.4586 107.707 24.7826 107.242 24.2701C107.023 24.0412 106.76 23.859 106.468 23.7345C106.177 23.61 105.864 23.5458 105.547 23.5458C105.23 23.5458 104.916 23.61 104.625 23.7345C104.333 23.859 104.07 24.0412 103.851 24.2701C103.404 24.7917 103.172 25.4634 103.2 26.1498C103.175 26.8357 103.407 27.5061 103.851 28.0295Z" fill="white"/>
<path d="M116.432 30.9657C115.329 31.011 114.236 30.7472 113.275 30.204C112.889 29.9718 112.561 29.6557 112.314 29.2792C112.067 28.9028 111.909 28.4756 111.849 28.0294C111.849 27.7837 111.935 27.6608 112.206 27.6608H114.012C114.098 27.6643 114.181 27.6912 114.253 27.739C114.324 27.7866 114.381 27.8531 114.417 27.9311C114.675 28.5945 115.351 28.9262 116.432 28.9262C116.809 28.9436 117.185 28.8675 117.525 28.7051C117.643 28.652 117.744 28.568 117.818 28.462C117.891 28.3559 117.935 28.2319 117.943 28.1031C117.943 27.7837 117.747 27.5625 117.353 27.4151C116.887 27.2599 116.405 27.1569 115.916 27.108C115.337 27.0424 114.762 26.9398 114.196 26.8008C113.645 26.6762 113.145 26.3895 112.759 25.9777C112.531 25.6978 112.364 25.3741 112.267 25.0268C112.17 24.6794 112.145 24.3158 112.195 23.9586C112.245 23.6014 112.367 23.2581 112.555 22.9504C112.743 22.6425 112.992 22.3766 113.287 22.1691C114.172 21.6051 115.211 21.3302 116.26 21.3828C117.275 21.3485 118.28 21.5997 119.159 22.1077C119.514 22.3085 119.819 22.5858 120.053 22.9195C120.287 23.2532 120.443 23.6348 120.511 24.0365C120.511 24.2822 120.4 24.4051 120.179 24.4051H118.361C118.284 24.4097 118.208 24.391 118.142 24.3515C118.077 24.3121 118.024 24.2536 117.992 24.184C117.871 23.893 117.642 23.6599 117.353 23.5328C117.028 23.3625 116.664 23.2779 116.297 23.2871C115.937 23.2676 115.578 23.3394 115.253 23.496C115.138 23.5402 115.04 23.6176 114.969 23.7183C114.899 23.8191 114.861 23.9385 114.859 24.0611C114.867 24.2292 114.929 24.3902 115.035 24.5207C115.141 24.6512 115.286 24.7441 115.449 24.786C115.921 24.9639 116.412 25.0875 116.911 25.1545C117.486 25.2302 118.056 25.3369 118.619 25.474C119.17 25.5987 119.67 25.8853 120.056 26.2971C120.263 26.524 120.422 26.7895 120.526 27.0785C120.629 27.3673 120.674 27.6738 120.658 27.9802C120.669 28.405 120.569 28.8251 120.369 29.1999C120.169 29.5744 119.875 29.8908 119.516 30.118C118.598 30.7073 117.522 31.0029 116.432 30.9657Z" fill="white"/>
<path d="M133.644 30.3514C133.651 30.395 133.649 30.4396 133.639 30.4825C133.628 30.5255 133.609 30.5658 133.582 30.6013C133.557 30.6368 133.523 30.6666 133.485 30.6891C133.447 30.7116 133.405 30.7262 133.361 30.7322C132.913 30.8787 132.445 30.9574 131.973 30.9657C131.506 31.0141 131.034 30.9411 130.604 30.7539C130.173 30.5666 129.798 30.2714 129.516 29.8968C128.648 30.6429 127.526 31.0257 126.383 30.9657C125.852 30.9901 125.323 30.9033 124.828 30.7107C124.332 30.5182 123.883 30.2242 123.508 29.8477C123.136 29.4532 122.847 28.9875 122.659 28.4788C122.472 27.97 122.388 27.4286 122.415 26.8868V22.0831C122.415 21.8497 122.525 21.7268 122.759 21.7268H124.823C125.056 21.7268 125.167 21.8497 125.167 22.0831V26.5182C125.145 27.0708 125.333 27.6112 125.695 28.0294C125.876 28.221 126.095 28.3717 126.339 28.4713C126.582 28.5709 126.845 28.6171 127.108 28.6068C127.377 28.6186 127.646 28.577 127.899 28.4841C128.152 28.3913 128.384 28.2493 128.582 28.0662C128.769 27.8733 128.915 27.6441 129.01 27.3926C129.105 27.1411 129.147 26.8728 129.135 26.6042V22.0831C129.135 21.8497 129.246 21.7268 129.479 21.7268H131.568C131.801 21.7268 131.912 21.8497 131.912 22.0831V27.8697C131.912 28.3488 132.12 28.5822 132.526 28.5822C132.716 28.5896 132.907 28.569 133.091 28.5208C133.138 28.5078 133.187 28.5054 133.233 28.514C133.281 28.5225 133.326 28.5417 133.365 28.5701C133.404 28.5985 133.436 28.6353 133.46 28.6778C133.482 28.7203 133.494 28.7675 133.496 28.8157L133.644 30.3514Z" fill="white"/>
<path d="M153.166 30.3516C153.177 30.3956 153.178 30.4416 153.17 30.486C153.16 30.5304 153.141 30.5724 153.114 30.6088C153.087 30.6451 153.053 30.6751 153.012 30.6965C152.973 30.718 152.929 30.7303 152.883 30.7325C152.426 30.881 151.951 30.9598 151.471 30.9659C150.74 31.0036 150.018 30.7961 149.419 30.3762C149.16 30.1963 148.949 29.9554 148.806 29.6747C148.662 29.394 148.59 29.082 148.596 28.7668V25.8796C148.621 25.3287 148.437 24.7885 148.08 24.3685C147.908 24.1765 147.694 24.0251 147.457 23.9252C147.218 23.8255 146.962 23.7796 146.704 23.7911C146.471 23.7823 146.24 23.8264 146.027 23.9201C145.814 24.0137 145.626 24.1545 145.475 24.3316C145.151 24.7433 144.985 25.2579 145.008 25.7813V30.3148C145.008 30.5482 144.898 30.6711 144.664 30.6711H142.588C142.54 30.6771 142.491 30.6719 142.445 30.6562C142.399 30.6404 142.357 30.6143 142.323 30.5799C142.288 30.5456 142.262 30.5039 142.246 30.4579C142.23 30.412 142.225 30.3631 142.232 30.3148V25.8796C142.259 25.3348 142.088 24.7984 141.753 24.3685C141.603 24.1879 141.415 24.0426 141.202 23.9428C140.991 23.843 140.759 23.7912 140.524 23.7911C140.273 23.781 140.024 23.8239 139.79 23.9171C139.557 24.0102 139.347 24.1515 139.173 24.3316C138.821 24.7302 138.641 25.2509 138.669 25.7813V30.3148C138.675 30.3631 138.67 30.412 138.654 30.4579C138.638 30.5039 138.612 30.5456 138.578 30.5799C138.543 30.6143 138.502 30.6404 138.456 30.6562C138.41 30.6719 138.36 30.6771 138.313 30.6711H136.31C136.077 30.6711 135.966 30.5482 135.966 30.3148V24.5282C135.981 24.4297 135.972 24.3292 135.94 24.2346C135.909 24.1401 135.857 24.0541 135.785 23.9837C135.715 23.9133 135.629 23.8604 135.535 23.829C135.44 23.7977 135.339 23.789 135.241 23.8034H134.836C134.565 23.8034 134.43 23.7051 134.43 23.5085V22.0588C134.424 21.9691 134.449 21.8799 134.5 21.8062C134.552 21.7323 134.627 21.6784 134.713 21.6534C135.138 21.4989 135.588 21.424 136.04 21.4322C136.473 21.3952 136.909 21.4817 137.296 21.6817C137.683 21.8817 138.005 22.187 138.227 22.5625C138.641 22.1697 139.132 21.8665 139.669 21.672C140.206 21.4775 140.777 21.396 141.347 21.4322C141.901 21.4052 142.453 21.509 142.959 21.7353C143.465 21.9616 143.91 22.3039 144.259 22.7345C144.665 22.2926 145.165 21.9466 145.722 21.7213C146.279 21.4961 146.878 21.3974 147.478 21.4322C148.013 21.4071 148.549 21.4935 149.05 21.686C149.551 21.8784 150.007 22.1727 150.389 22.5502C150.763 22.944 151.052 23.4095 151.24 23.9185C151.428 24.4273 151.511 24.9693 151.483 25.5111V27.8822C151.483 28.3491 151.692 28.5825 152.085 28.5825C152.275 28.5913 152.466 28.5707 152.65 28.5211C152.904 28.5211 153.039 28.6194 153.055 28.8159L153.166 30.3516Z" fill="white"/>
<path d="M9.10403 20.1298C10.0104 16.4867 12.1096 13.2515 15.0674 10.9395C18.0252 8.62748 21.6715 7.37146 25.4256 7.37146C29.1797 7.37146 32.826 8.62748 35.7838 10.9395C38.7416 13.2515 40.8407 16.4867 41.7472 20.1298H40.2729C37.7859 20.0932 35.3499 20.8365 33.3069 22.2552C33.1889 22.3406 33.0658 22.4186 32.9383 22.4887H32.7663C32.6388 22.4186 32.5157 22.3406 32.3977 22.2552C30.3367 20.8693 27.9093 20.1291 25.4256 20.1291C22.9419 20.1291 20.5145 20.8693 18.4535 22.2552C18.3355 22.3406 18.2124 22.4186 18.0849 22.4887H17.9129C17.7854 22.4186 17.6623 22.3406 17.5443 22.2552C15.5013 20.8365 13.0653 20.0932 10.5783 20.1298H9.10403ZM37.6192 27.8329C38.376 27.2436 39.314 26.9352 40.2729 26.9607H42.2509V23.0169H40.2729C38.5838 22.9966 36.9335 23.5223 35.5675 24.5158C34.7987 25.0825 33.8688 25.3883 32.9137 25.3883C31.9586 25.3883 31.0287 25.0825 30.26 24.5158C28.8593 23.5408 27.1936 23.0181 25.487 23.0181C23.7804 23.0181 22.1147 23.5408 20.714 24.5158C19.9453 25.0825 19.0154 25.3883 18.0603 25.3883C17.1052 25.3883 16.1753 25.0825 15.4066 24.5158C14.0237 23.5095 12.3497 22.9832 10.6397 23.0169H8.60031V26.9607H10.5783C11.5372 26.9352 12.4752 27.2436 13.232 27.8329C14.6301 28.8087 16.294 29.3318 17.9989 29.3318C19.7038 29.3318 21.3676 28.8087 22.7657 27.8329C23.5235 27.2454 24.4608 26.9373 25.4195 26.9607C26.3787 26.9331 27.3174 27.2418 28.0732 27.8329C29.4739 28.8081 31.1396 29.3307 32.8462 29.3307C34.5528 29.3307 36.2185 28.8081 37.6192 27.8329ZM37.6192 34.8849C38.376 34.2956 39.314 33.9872 40.2729 34.0127H42.2509V30.0689H40.2729C38.5838 30.0486 36.9335 30.5743 35.5675 31.5678C34.7987 32.1345 33.8688 32.4403 32.9137 32.4403C31.9586 32.4403 31.0287 32.1345 30.26 31.5678C28.8593 30.5928 27.1936 30.0702 25.487 30.0702C23.7804 30.0702 22.1147 30.5928 20.714 31.5678C19.9453 32.1345 19.0154 32.4403 18.0603 32.4403C17.1052 32.4403 16.1753 32.1345 15.4066 31.5678C14.0237 30.5616 12.3497 30.0352 10.6397 30.0689H8.60031V34.0127H10.5783C11.5372 33.9872 12.4752 34.2956 13.232 34.8849C14.6301 35.8607 16.294 36.3838 17.9989 36.3838C19.7038 36.3838 21.3676 35.8607 22.7657 34.8849C23.5235 34.2974 24.4608 33.9893 25.4195 34.0127C26.3787 33.9851 27.3174 34.2938 28.0732 34.8849C29.4739 35.8601 31.1396 36.3827 32.8462 36.3827C34.5528 36.3827 36.2185 35.8601 37.6192 34.8849Z" fill="white"/>
</svg>
