<svg width="163" height="43" viewBox="0 0 163 43" fill="none" xmlns="http://www.w3.org/2000/svg">
<path d="M47.4835 13.8339H51.4272V29.8053H47.4835V13.8339ZM52.9998 23.7976C52.9998 19.8416 55.4569 17.4705 59.1426 17.4705C62.8284 17.4705 65.2855 19.8416 65.2855 23.7976C65.2855 27.7536 62.9144 30.1493 59.1426 30.1493C55.3709 30.1493 52.9998 27.8396 52.9998 23.7976ZM61.3786 23.7976C61.3786 21.623 60.5309 20.3453 59.1795 20.3453C57.8281 20.3453 56.9927 21.5739 56.9927 23.7976C56.9927 26.0213 57.8281 27.2376 59.1795 27.2376C60.5309 27.2376 61.4032 26.0213 61.4032 23.8099L61.3786 23.7976ZM66.8581 30.6285H70.6667C70.84 31.0384 71.1428 31.3806 71.5289 31.6024C71.9149 31.8242 72.3628 31.9137 72.8044 31.857C74.3155 31.857 75.1018 31.0462 75.1018 29.8422V27.6308H75.1141C74.7886 28.3194 74.2623 28.8932 73.6045 29.277C72.9466 29.6608 72.188 29.8364 71.4284 29.7808C68.5412 29.7808 66.6247 27.5816 66.6247 23.7976C66.6247 20.0136 68.4552 17.6548 71.5389 17.6548C72.318 17.6131 73.0909 17.814 73.7509 18.2298C74.411 18.6457 74.9259 19.2561 75.2246 19.9768H75.1141V17.753H79.0209V29.7193C79.0209 32.6065 76.4655 34.4125 72.7061 34.4125C69.2907 34.4002 67.1038 32.8399 66.8826 30.6408L66.8581 30.6285ZM75.1141 23.7976C75.1141 21.8688 74.2295 20.6525 72.8289 20.6525C71.4284 20.6525 70.5684 21.881 70.5684 23.7976C70.5684 25.7142 71.4161 26.8445 72.8289 26.8445C74.2418 26.8445 75.1141 25.8002 75.1141 23.7976ZM80.5812 23.7976C80.5812 19.8416 83.0384 17.4705 86.7241 17.4705C90.4098 17.4705 92.8669 19.8416 92.8669 23.7976C92.8669 27.7536 90.4835 30.1493 86.7241 30.1493C82.9646 30.1493 80.6058 27.8396 80.6058 23.7976H80.5812ZM88.9601 23.7976C88.9601 21.623 88.1001 20.3453 86.7609 20.3453C85.4218 20.3453 84.5741 21.5739 84.5741 23.7976C84.5741 26.0213 85.4095 27.2376 86.7609 27.2376C88.1124 27.2376 88.9846 26.0213 88.9846 23.8099L88.9601 23.7976ZM94.4641 14.8413C94.4469 14.4396 94.5503 14.0419 94.761 13.6995C94.9717 13.357 95.2801 13.0854 95.6465 12.9197C96.0128 12.7539 96.4203 12.7015 96.8167 12.7693C97.213 12.837 97.58 13.0218 97.8704 13.2998C98.1608 13.578 98.3615 13.9365 98.4465 14.3295C98.5314 14.7225 98.4969 15.132 98.3472 15.5051C98.1976 15.8784 97.9397 16.1983 97.6068 16.4237C97.2738 16.6492 96.881 16.7698 96.4789 16.7702C96.222 16.7767 95.9663 16.7321 95.7267 16.6391C95.4871 16.546 95.2683 16.4062 95.0832 16.2279C94.898 16.0496 94.7501 15.8363 94.6481 15.6003C94.546 15.3644 94.4918 15.1106 94.4886 14.8536L94.4641 14.8413ZM94.4641 17.7408H98.4569V29.8545H94.5255L94.4641 17.7408ZM112.819 23.7976C112.819 27.7413 111.05 30.0265 108.04 30.0265C107.269 30.074 106.503 29.8838 105.843 29.4818C105.184 29.0797 104.665 28.4851 104.354 27.7782H104.28V33.749H100.337V17.7776H104.256V19.9399H104.33C104.629 19.2191 105.144 18.6081 105.804 18.1904C106.463 17.7727 107.235 17.5685 108.015 17.6056C111.111 17.581 112.893 19.8539 112.893 23.8099L112.819 23.7976ZM108.802 23.7976C108.802 21.881 107.905 20.6402 106.516 20.6402C105.128 20.6402 104.256 21.8688 104.244 23.7976C104.231 25.7265 105.128 26.9428 106.516 26.9428C107.905 26.9428 108.875 25.8002 108.875 23.8099L108.802 23.7976ZM119.552 17.4582C122.856 17.4582 124.908 19.0185 124.933 21.5248H121.333C121.333 20.6525 120.608 20.1119 119.527 20.1119C118.446 20.1119 117.93 20.5296 117.93 21.1562C117.93 21.7828 118.384 21.9793 119.294 22.1636L121.824 22.6796C124.282 23.1956 125.264 24.1785 125.264 26.009C125.264 28.4662 122.992 30.137 119.613 30.137C116.234 30.137 114.035 28.5153 113.876 26.0459H117.696C117.807 26.9428 118.52 27.471 119.674 27.471C120.829 27.471 121.37 27.1025 121.37 26.4513C121.37 25.8002 121.001 25.6896 120.055 25.493L117.77 25.0139C115.399 24.5102 114.158 23.2693 114.158 21.4142C114.232 19.0062 116.296 17.4705 119.625 17.4705L119.552 17.4582ZM138.472 29.8422H134.651V27.5693H134.577C134.363 28.3275 133.898 28.99 133.256 29.4478C132.615 29.9057 131.837 30.1314 131.051 30.0879C130.458 30.1072 129.865 30.0008 129.316 29.7755C128.767 29.5503 128.271 29.2113 127.862 28.7809C127.451 28.3504 127.138 27.8383 126.94 27.278C126.742 26.7178 126.665 26.1219 126.714 25.5299V17.753H130.658V24.6822C130.658 26.1073 131.407 26.8813 132.636 26.8813C132.924 26.8791 133.208 26.8151 133.47 26.6937C133.732 26.5722 133.964 26.396 134.151 26.1771C134.339 25.9582 134.477 25.7015 134.557 25.4246C134.636 25.1476 134.656 24.8568 134.614 24.5716V17.753H138.545L138.472 29.8422ZM140.376 17.7408H144.209V20.075H144.295C144.506 19.3272 144.961 18.6708 145.585 18.2083C146.21 17.746 146.971 17.5038 147.747 17.5196C148.527 17.4518 149.305 17.6774 149.927 18.1522C150.55 18.627 150.972 19.3171 151.114 20.0873H151.286C151.531 19.313 152.025 18.6414 152.692 18.1771C153.358 17.7127 154.16 17.4816 154.971 17.5196C155.511 17.4991 156.049 17.5927 156.549 17.7943C157.05 17.9958 157.502 18.3009 157.877 18.6895C158.252 19.0779 158.539 19.5412 158.722 20.0489C158.906 20.5565 158.98 21.0971 158.94 21.6353V29.8545H154.971V22.6428C154.971 21.4142 154.394 20.7262 153.276 20.7262C153.028 20.7221 152.782 20.7718 152.555 20.8715C152.327 20.9714 152.126 21.1192 151.961 21.3047C151.797 21.4904 151.674 21.7092 151.601 21.9465C151.53 22.1839 151.51 22.4339 151.544 22.6796V29.8545H147.784V22.6059C147.784 21.3773 147.182 20.7262 146.101 20.7262C145.85 20.7242 145.602 20.7758 145.374 20.8775C145.144 20.9794 144.94 21.1289 144.773 21.3163C144.607 21.5036 144.483 21.7244 144.409 21.9637C144.334 22.2032 144.312 22.4556 144.344 22.7042V29.8545H140.4L140.376 17.7408Z" fill="white"/>
<path d="M39.683 14.878C39.6831 12.4328 38.9447 10.0445 37.5645 8.02604C36.1844 6.00758 34.2266 4.453 31.948 3.56597C29.6694 2.67893 27.1759 2.50079 24.7943 3.05486C22.4126 3.60894 20.2538 4.8694 18.6007 6.67115H3.26813V39.0317H35.641V23.908C36.9115 22.7716 37.9283 21.38 38.6248 19.824C39.3213 18.268 39.6819 16.5828 39.683 14.878ZM33.4541 14.878C33.4566 16.0497 33.1113 17.1958 32.4622 18.1713C31.8129 19.1467 30.889 19.9077 29.8071 20.3577C28.7252 20.8078 27.5342 20.9269 26.3847 20.6997C25.2352 20.4727 24.1789 19.9096 23.3495 19.0819C22.5201 18.2542 21.9549 17.1991 21.7254 16.0501C21.4959 14.9011 21.6125 13.7098 22.0603 12.627C22.5081 11.5442 23.2672 10.6187 24.2412 9.96743C25.2153 9.3162 26.3607 8.96859 27.5324 8.96858C29.1008 8.96858 30.6052 9.59079 31.7153 10.6987C32.8256 11.8065 33.4509 13.3096 33.4541 14.878ZM29.4121 32.8029H9.49698V12.9H15.5661C15.4489 13.553 15.3872 14.2147 15.3818 14.878C15.3851 18.0996 16.6663 21.1882 18.9443 23.4662C21.2222 25.7441 24.3108 27.0254 27.5324 27.0286C28.1623 27.0253 28.7908 26.9718 29.4121 26.8689V32.8029Z" fill="white"/>
</svg>
