<svg width="42" height="42" viewBox="0 0 42 42" fill="none" xmlns="http://www.w3.org/2000/svg">
<rect width="42" height="42" rx="12" fill="#EB7530"/>
<path d="M22.5914 14.0421V11H13V31.9007H22.5914V28.8587C20.6266 28.8587 18.7423 28.0781 17.353 26.6888C15.9636 25.2995 15.1831 23.4152 15.1831 21.4504C15.1831 19.4856 15.9636 17.6012 17.353 16.2119C18.7423 14.8226 20.6266 14.0421 22.5914 14.0421Z" fill="white"/>
<path d="M22.5917 14.0421V28.8587C24.5565 28.8587 26.4409 28.0782 27.8302 26.6888C29.2195 25.2995 30 23.4152 30 21.4504C30 19.4856 29.2195 17.6013 27.8302 16.212C26.4409 14.8226 24.5565 14.0421 22.5917 14.0421Z" fill="white"/>
</svg>
