<svg width="64" height="64" viewBox="0 0 64 64" fill="none" xmlns="http://www.w3.org/2000/svg">
<rect width="64" height="64" rx="12" fill="#1B2028"/>
<path d="M37.517 29.3838L37.5272 29.341L37.5412 29.2992C37.8457 28.3863 37.2343 27.2067 36.1478 26.8395C33.1889 25.9196 32.3673 22.1184 34.5605 19.927L39.3094 15.1822L39.333 15.1587L39.3581 15.1368C41.0644 13.645 43.7007 13.582 45.3023 15.1822L48.5248 18.4019L48.5339 18.411L48.5427 18.4203C49.5776 19.5086 50.0059 20.9855 49.9999 22.6001C49.994 24.2104 49.5595 26.0297 48.7873 27.9364C47.2416 31.753 44.2709 36.0984 40.2142 40.1516C36.1607 44.2015 31.8133 47.2123 27.9933 48.7787C26.0851 49.5612 24.2606 50.0029 22.6432 50C21.0176 49.997 19.5347 49.5406 18.4481 48.455L15.2257 45.2353L15.2021 45.2118L15.1802 45.1867C13.6866 43.4813 13.6235 40.8458 15.2257 39.2451L19.9746 34.5003C22.1664 32.3104 25.9695 33.1291 26.8908 36.0865C27.225 37.0711 28.3735 37.6844 29.4414 37.4539C30.8932 37.0869 32.7274 35.9092 34.3318 34.3264C35.942 32.738 37.1544 30.9057 37.517 29.3838Z" stroke="white" stroke-width="2"/>
</svg>
